<?xml version="1.0" encoding="UTF-8" standalone="no"?>
<svg
   id="Layer_1"
   data-name="Layer 1"
   version="1.1"
   viewBox="0 0 219.09997 45.6"
   sodipodi:docname="scripla.svg"
   width="219.10001"
   height="45.599998"
   xmlns:inkscape="http://www.inkscape.org/namespaces/inkscape"
   xmlns:sodipodi="http://sodipodi.sourceforge.net/DTD/sodipodi-0.dtd"
   xmlns="http://www.w3.org/2000/svg"
   xmlns:svg="http://www.w3.org/2000/svg">
  <sodipodi:namedview
     id="namedview16"
     pagecolor="#ffffff"
     bordercolor="#000000"
     borderopacity="0.25"
     inkscape:showpageshadow="2"
     inkscape:pageopacity="0.0"
     inkscape:pagecheckerboard="0"
     inkscape:deskcolor="#d1d1d1"
     showgrid="false" />
  <defs
     id="defs9">
    <linearGradient
       id="linear-gradient"
       x1="27.5"
       x2="27.5"
       y1="2.8"
       y2="47"
       gradientTransform="matrix(1,0,0,-1,0,48)"
       gradientUnits="userSpaceOnUse">
      <stop
         offset="0"
         stop-color="#171743"
         id="stop2" />
      <stop
         offset="1"
         stop-color="#292563"
         id="stop4" />
    </linearGradient>
    <style
       id="style7">.cls-1{fill:#171743;stroke-width:0}</style>
  </defs>
  <path
     d="m 36.8,1 h 16.8 v 37.2 c -0.9,3.4 -3.3,4.5 -6.4,4.4 H 32.7 c -4.9,0 -0.8,0 -1.1,0.5 a 5,5 0 0 1 -8.2,0 C 23.1,42.7 22.8,42.6 22.3,42.6 H 7 C 3.6,42.6 1.4,40.4 1.4,37 V 1 h 16.8 l 0.3,0.1 c 3.4,0.8 5.8,3.2 6.2,6.7 0.2,2 0,4.1 0.1,6.2 v 0.9 h -5.1 c -0.7,0 -1,0.3 -0.9,0.9 v 2.4 c 0,1 0,1.1 1.1,1.1 h 5 v 16.2 h 5.2 V 19.3 h 5.5 c 0.6,0 0.8,-0.3 0.8,-0.8 v -2.2 c 0,-0.9 -0.5,-1.4 -1.4,-1.4 h -4.9 c 0,-2.4 -0.2,-4.6 0,-6.9 0.3,-3.6 2.7,-6.1 6.3,-6.9 L 36.7,1 Z"
     style="fill:url(#linear-gradient);stroke-width:0"
     id="path13" />
</svg>
