<svg xmlns="http://www.w3.org/2000/svg" id="Layer_1" viewBox="0 0 500 500"><style>.st0{fill:#65c2e5}.st1{fill:#abd03a}</style><path d="M187 474c-4 0-6-2-8-4-6-5-11-11-14-17-1-3-2-3-5-3h-16c-6 0-11-5-11-11v-70c0-6 5-11 12-11h132c9 0 13 4 13 13v66c0 8-5 13-13 13h-94c-4 0-5 1-5 5 1 6 3 11 7 16 1 1 2 1 2 3z" class="st0"/><path d="M303 314c-5-1-8-4-10-8-2-5-5-6-10-5h-4c-4-1-7-3-7-7v-40c0-4 3-7 7-7h78c4 0 7 3 7 7v40c0 4-3 6-8 6h-53c-4 0-5 1-4 6l2 4 2 4zm94-156-4-2-5-5c-2-5-5-6-10-5-6 0-8-2-8-8v-31c0-4 2-6 7-6h64c5 0 6 2 6 6v32c0 5-1 7-6 7h-44c-5 0-5 0-4 5l4 6zm-98 36c5 1 7 4 9 8 1 2 2 2 4 2h6c3 0 5 2 5 5v31c-1 3-3 4-6 4h-57c-4 0-6-1-6-6v-28c0-4 2-6 6-6h39c4 0 4 0 3-4l-1-3-2-3z" class="st1"/><path d="M438 339c-4-1-7-4-8-7-1-2-2-3-5-3-10 0-10 0-10-11v-22c0-5 1-7 7-7h54c5 0 7 2 7 6v28c0 5-2 6-7 6h-37c-5 0-5 1-4 5l3 5zM271 61c-4-1-7-4-8-7s-3-4-6-4c-9 1-9 1-9-9V17c0-4 2-6 6-6h56c4 0 6 2 6 6v28c0 4-2 6-6 6h-40c-2 0-3 1-2 3l2 7zm-12 243c4 1 7 4 8 8l5 2h4c4 0 6 2 6 5v29c0 3-2 5-5 5h-58c-3 0-5-1-5-5v-29c0-3 2-5 6-5h38c4 0 5-1 3-6l-2-4zm118 138c-4-1-6-4-7-6s-2-3-4-3c-8 0-8 0-8-8v-20c0-4 1-5 5-5h47c3 0 4 1 5 5v23c-1 4-2 5-6 5h-31c-4 0-5 1-3 5l2 4zM238 103c-3-1-5-2-6-5-1-2-2-2-5-2h-3c-1-1-3-2-3-4V71c0-3 2-4 4-4h42c2 0 3 2 3 4v20c0 4-1 5-4 5h-26c-5 0-6 1-3 5l1 2zm76 374c-3-1-4-3-5-5s-2-2-4-2h-3c-3 0-4-1-4-4v-21c0-2 1-4 4-4h41c3 0 4 2 4 4v20c0 4-1 5-5 5h-26c-4 0-5 1-3 5l1 2zm-98 15c-3-1-4-2-5-4-1-3-3-3-6-3-5 0-5-1-5-6v-18c0-4 1-5 4-5h40c4 0 5 1 5 4v20c0 3-2 5-5 5h-26c-5 0-5 0-3 4l1 3z" class="st0"/><path d="M405 207c-2-3-4-4-7-4-4 0-5-1-5-4v-19c0-4 1-5 4-5h38c4 0 5 1 5 5v18c0 4-1 5-5 5h-25c-4 0-4 1-2 5l1 2c-2 0-3-2-5-3zm-71-63c-3-1-5-3-6-5l-4-2c-6 0-6-1-6-6v-17c0-4 1-5 5-5h37c4 0 5 1 5 5v18c0 4-1 5-5 5h-25c-4 0-4 1-3 4l2 3zm63 164 1-1c1-2 2-3 1-5s-3-1-4-1h-23c-3 0-4-1-4-4v-18c0-3 1-4 4-4h36c4 0 5 1 5 4v17c0 4-1 5-5 5-3 0-5 0-6 3-1 2-2 3-5 4zm-64 57c3-7 2-6-4-6h-22c-3 0-4-1-4-5v-17c0-4 1-5 4-5h36c4 0 5 1 5 4v19c0 3-2 4-5 4-3-1-5 0-6 3-1 2-2 3-4 3zm118-224c2 0 3 2 4 4s2 3 4 2c6 0 6 1 6 6v16c0 4-1 5-4 5h-37c-3 0-4-1-4-5v-17c0-4 1-5 4-5h24c4 0 5-1 3-4l-1-2h1zM325 399c3-6 3-6-4-6h-20c-4 0-5-1-5-5v-17c0-3 1-5 4-5h36c3 0 4 2 4 4v18c0 3-1 5-4 4-3 0-5 1-7 4l-4 3z" class="st1"/><path d="m349 75-5-5-4-2c-5 0-5 0-5-5V47c0-3 1-5 4-5h35c3 0 5 1 5 5v18c0 2-2 3-5 3h-23c-4 0-5 1-3 5l1 2z" class="st0"/><path d="M254 270c2 1 4 2 4 4 1 2 3 3 5 2 5 0 5 1 5 6v16c0 3-1 4-4 4h-36c-3 0-4-1-4-4v-18c0-3 1-4 4-4h24c4 0 4 0 3-4l-1-2z" class="st1"/><path d="m457 252 4 4c1 2 2 2 5 2 5 0 5 1 5 6v16c0 3-1 4-4 4h-36c-3 0-4-1-4-4v-17c0-4 1-5 4-5h24c4 0 4 0 2-4v-2zM229 40l1-2c1-4 1-5-3-5h-23c-4 0-4-1-4-5l-1-17c0-3 2-4 5-4h36c2 0 3 1 3 4v18c1 3-1 4-3 4-3-1-6 0-7 3l-4 4zm220 336c3-8 1-6-5-6h-20c-4 0-4-1-4-5l-1-17c0-3 1-4 4-4h36c3 0 4 1 4 4v18c0 2-1 4-3 4-4-1-6 0-8 4l-3 2z" class="st0"/><path d="M265 168c-3 7-3 7 4 7h21c3 0 4 1 4 4l1 17c0 4-1 5-5 5h-36c-3 0-4-1-4-4v-18c0-3 2-4 5-4 3 1 5 0 6-3l4-4zm75 58c-3-1-4-2-5-4s-2-3-4-3c-5 1-6 0-6-5v-16c0-2 1-4 4-4h35c4 0 4 1 5 4v17c0 3-1 4-5 4h-23c-3 0-4 1-2 5l1 2zm129-20c3-6 4-7-3-6h-20c-3 0-4-1-4-4v-17c0-2 1-3 4-3h33c3 0 4 1 4 3v17c0 2-1 4-3 4-4-1-6 0-7 3l-4 3zm-181-63-4-3c-1-2-2-3-4-2-4 0-4-1-4-5v-14c-1-2 1-3 3-3h31c2 0 3 1 3 3v15c0 3-1 4-3 4h-20c-4 0-4 0-2 4v1zm47 187 1-2c1-3 1-3-2-3h-20c-3 0-4-1-4-4v-14c0-3 1-4 4-4h29c3 0 4 1 4 4v15c0 2-1 3-3 3-3 0-5 0-6 3l-2 2h-1zm42 3c2-5 2-5-4-5h-17c-3 0-4-1-4-4v-14c0-3 1-4 4-4h29c3 0 4 1 4 4v14c0 3-1 4-4 4-2-1-4 0-5 2 0 2-2 3-3 3zm45-80c2-5 2-5-4-5h-17c-3 0-4-1-4-4v-14c0-3 1-4 4-4h30c2 0 3 1 3 4v15c0 2-1 3-3 3-3-1-5 0-6 3 0 1-1 2-3 2zm-48 125c2-6 2-6-4-6h-18c-2 0-3-1-3-4v-14c0-3 1-4 3-4h30c3 0 4 1 4 4v15c0 2-1 3-3 3-3 0-5 0-6 3l-3 3z" class="st1"/><path d="M365 249c3-6 3-6-3-6h-17c-3 0-4-1-4-3v-14c0-2 1-4 4-4h29c2 0 3 1 3 4v14c0 2-1 3-3 3-3 0-5 1-6 3l-3 3z" class="st1"/><path d="m281 172-1-1c-2-2-4-4-8-4-2 0-2-2-2-3v-13c0-2 1-3 3-3h27c2 0 3 1 3 3v13c0 2-1 3-3 3h-16c-5 0-5 0-3 5zm119 225 1-2c1-2 0-3-2-3l-16 1c-3 0-4-1-4-4v-11c0-3 1-4 4-4h24c2 0 3 1 3 4v11c0 3-1 4-3 4-2-1-3 0-4 2l-2 2h-1z" class="st0"/><path d="m360 83 1 1c2 2 3 4 6 3l2 3v12c0 2-1 2-3 2h-24c-1 0-2-1-2-3V91c0-2 1-3 3-3h13c5 0 5 0 4-4zm-110 88 1-2c1-2 0-3-2-3h-15c-3 1-4 0-3-3v-11c-1-2 0-3 3-3h23c2 0 3 1 3 3v12l-2 2c-3 0-5 2-7 4l-1 1z" class="st1"/><path d="M185 39c1-5 1-5-3-5h-14c-2 0-3-1-3-3V20c0-2 1-3 3-3h23c2 0 3 1 3 3v11c0 2 0 3-2 3-3 0-5 2-6 4l-1 1z" class="st0"/><path d="m296 77 2 2 4 2c2-1 3 1 3 3v11c0 2-1 3-3 3h-24c-2 0-3-1-3-3V84c0-3 2-3 4-3h14c3 0 4-1 2-4h1z" class="st1"/><path d="M276 475c0-4 0-4-4-4h-12c-2 0-3-1-3-3v-10c0-2 1-3 3-3h21c2 0 3 1 3 3v10c0 2 0 3-2 3-3 0-4 1-5 3l-1 1zm161-76c0-4 0-4-4-4h-12c-3 0-4-1-3-3v-10c-1-3 0-3 2-3h22c2 0 3 0 3 2v11c0 1 0 3-2 3-3-1-4 1-5 3l-2 1z" class="st0"/><path d="M104 417c0-4 0-4-3-4H88c-2 0-3-1-3-3v-10c0-2 1-3 3-3h22c1 0 2 1 2 3v11l-1 2c-4-1-5 2-7 4z" class="st1"/><path d="M121 443c1-4 1-4-2-4h-13c-2 0-3-1-3-4v-9c0-2 0-3 3-3h21c2 0 3 1 3 3v9c0 2 0 3-2 3-3 0-4 2-6 3l-1 1z" class="st0"/><path d="M482 227c1-2 1-3-2-3h-12c-3 0-4-1-4-3l1-9c-1-2 0-3 2-3h21c2 0 3 0 3 2v10l-1 3c-4-1-5 2-7 3h-1zm-28-3c1-4 1-4-3-4h-12c-2 0-3-1-3-3v-9c0-3 1-3 3-3h20c2 0 3 1 3 3v9l-1 3c-3 0-5 1-6 3l-1 1zm-201 46h-1c-3 1-6 2-7 5 1-4 1-4-3-4h-12c-2 0-3-1-3-3v-9c0-2 1-3 3-3h20c2 0 3 1 3 3v11z" class="st1"/><path d="M369 462c1-2 0-3-3-3h-12c-2 0-3-1-3-3v-9c0-2 1-3 3-3h20c2 0 3 1 3 3v10l-1 2c-3-1-5 2-7 3z" class="st0"/><path d="M391 99c0-3-1-4-4-3h-11c-2 0-3-1-3-3v-9c0-2 1-3 3-3h19c2 0 3 0 3 2v10l-1 2c-3 0-4 2-6 4zm-42 316c1-3 0-3-2-3h-13c-2 0-3-1-3-3v-9c0-2 0-2 2-2a680 680 0 0 0 23 2v10l-2 2c-3-1-4 1-5 2zm-86-270c2-4 1-4-2-4h-12c-2 0-3-1-3-3v-9c0-2 1-3 3-3h20c2 0 2 1 2 3v9l-1 3c-3-1-4 1-7 4zm102 31c1-2 1-3-2-3h-12c-2 1-3 0-3-3v-9a660 660 0 0 0 23-3l2 4v9c0 1 0 3-1 2-4 0-5 2-6 4l-1-1zm18 95c1-2 0-3-2-3h-11c-2 0-3 0-3-3v-8a552 552 0 0 0 21-3c2 1 2 1 2 3v9l-1 2c-3 0-4 2-5 3h-1zm-168 6c1-2 0-3-2-3l-11 1c-2 0-3-1-3-3v-8c0-2 1-3 3-3h18c2 0 3 1 3 3v8l-2 2c-3 0-4 2-5 3h-1zm146 116c0-2 0-3-2-3h-11c-3 0-3 0-3-3v-8c0-1 0-2 2-2h18c2 0 3 1 3 2v6c0 3 0 6-4 5-2 0-2 3-3 3zm44-186v11c0 2-1 3-2 3-2 0-3 0-4 2l-2 1c2-3 1-3-2-3h-10c-3 0-4-1-4-3v-8c0-2 1-3 3-3h21zm-39 140c1-2 0-3-3-3h-10c-2 0-3 0-3-3v-7c0-2 0-3 2-3h19c1 0 2 0 2 2v9l-1 2c-3 0-4 2-6 3zm105-120c0 2 0 3 2 3h10c2 0 3 1 3 3v7c0 2 0 3-2 3h-17c-2 0-3-1-3-3v-6c0-2 0-4 4-4 2 0 1-2 3-3v1z" class="st1"/><path d="M406 342c0-2 0-3-3-3h-10c-2 0-3-1-2-3v-8a510 510 0 0 0 20-2l2 2v6c0 3 0 5-3 5-2 0-2 2-4 3z" class="st0"/><path d="M314 433c-2-1-3-4-6-3l-1-2v-8c0-2 1-3 2-3h17c2 0 3 1 3 3v8c0 2-1 2-3 2h-10c-2 0-3 1-2 2l-1 1zm4-350-1-1c1-4-1-2-3-2h-9c-1 0-2-1-2-3v-7c0-2 0-3 2-3h16c2 0 3 1 3 3v6c0 2 0 4-4 4-1 0-2 1-2 3z" class="st1"/><path d="M445 249c-1-1-2-3-5-3-1 1-1 0-1-1v-2c0-10-2-9 8-9h10c2 0 3 1 2 3l1 7c0 2-1 3-3 3h-10c-1 0-2 0-2 2z" class="st0"/><path d="M215 57c1-2 0-3-2-3h-10c-2 1-3 0-3-2v-7c0-2 1-3 3-3h16c2 0 2 1 2 3v5c1 3 1 5-3 4-1 0-1 3-3 3z" class="st1"/><path d="M359 193c-1-3-1-3-3-3l-9 1c-2 0-3-1-3-3v-7c0-2 1-3 2-3h16c2 0 3 1 3 3v5c0 2 1 5-3 5-2 0-2 2-3 2z" class="st0"/><path d="M241 196c1-2 0-3-2-3l-10 1c-2 0-2-1-2-3-1-10-1-10 8-10h9c3 0 4 1 4 4v5c0 2-1 4-3 3-2 0-2 3-4 3z" class="st1"/><path d="M337 38c0-2 0-2-2-2h-10c-2 0-2-1-2-3 0-10 0-10 9-10h9c2 0 2 1 2 3v5c0 2 1 5-3 5l-2 2h-1z" class="st0"/><path d="M317 416c1-2 0-3-1-3h-10c-2 0-3 0-3-3l1-6c0-2 0-3 2-3h15c2 0 3 1 2 3v5c0 2 1 4-3 4l-3 3z" class="st1"/><path d="M291 73c0-2-1-3-3-2h-9c-2 0-3-1-3-3l1-7c-1-2 0-3 2-3h15c2 0 3 1 3 3v5c0 2 0 5-4 4l-2 3z" class="st0"/><path d="M423 99c0-2-1-3-3-2h-8c-2 0-3-1-3-3 0-11-2-9 9-9h8c2 0 3 1 3 3v5c0 2 0 4-3 4-2-1-2 2-3 2zm-40 104c1-3 0-3-2-3h-8c-2 0-3-1-3-3 0-8 0-8 8-8h9c2 0 2 0 2 2v5c0 2 1 4-3 4-1 0-1 2-3 2z" class="st1"/><path d="m395 68-2-2h-9c-4-2-2-6-2-9-1-1 1-2 2-2h14c2 0 2 1 2 3v5c0 2 0 3-3 3l-2 2z" class="st0"/><path d="M298 331c1-2 0-3-1-3h-9c-3-2-1-5-1-7-1-2 0-3 2-3h14l1 3c-1 2 1 6-1 7l-5 3zm162-190c1-1 0-2-1-2h-8l-2-1v-8l2-1h13c2 2 1 5 1 7 0 1 1 3-1 3l-4 2zm-47 120c0-1 0-2-2-2h-6l-2 1c-2 0-2-2-2-4 1-2-2-5 2-6h14c2 2 0 4 1 6l-1 3-4 2z" class="st1"/><path d="M211 305c0-2-1-2-2-2h-7c-2 0-2 0-2-2 0-9-1-7 6-8h7c1 0 3 0 3 2v7l-1 1-4 2z" class="st0"/><path d="M318 83h14c2 0 3 0 3 2v4c0 2 0 4-3 3l-1 1-1 1c-2-4-5-1-8-2-3 0-4 0-4-4v-5zm76 90-2-2h-8l-2-2c-1-7-1-7 7-7h7c2-1 3 0 2 2v4c0 2 0 3-2 3l-2 2z" class="st1"/><path d="M324 65c0-2-1-2-2-2h-7l-2-1-1-8 2-1h12c2 0 3 1 3 3v3c0 2 0 4-3 4l-2 2zm34 90c0-2-1-2-2-2h-8l-2-1v-8l2-1h12c2 0 3 1 3 3v4c0 1 0 3-3 3l-2 2zm-83-44-2-2h-8l-2-1v-7c0-2 1-2 2-2h12l1 1c3 2 1 4 1 6 1 1 1 3-1 3s-2 1-3 2zm46 69c0-2-1-2-2-2h-7c-1 0-2-1-2-3v-4c0-2 0-2 2-2h12c1 0 2 0 2 2v3c0 2 1 5-3 4l-2 2v-1zM240 53h2c6 0 7 1 6 7-1 2-2 2-3 2s-1 3-3 1c-1-2-3-1-5-1s-4 1-5-1v-7l2-1h6z" class="st0"/><path d="M93 418h1c6 0 7 1 6 7l-5 2-6-1c-4 1-3-1-3-4 0-2 0-4 3-4h4z" class="st1"/><path d="M403 72c0-4 0-4 4-4h7c2 0 2 0 3 2 0 4-1 5-4 7h-1c-1-3-4-1-5-1-4-1-4 0-4-4z" class="st0"/><path d="M253 109h1c6 0 7 1 6 7l-5 2-6-1c-3 1-3-2-3-4s0-4 3-4h4zm63 35h1c6 1 5-1 5 6 1 2-2 3-4 2h-6c-2 0-3 0-3-3v-1c-1-3 1-4 3-4h4zm17 6h1c6 0 6 0 6 6-1 2-3 3-5 2h-6c-2 0-3 0-3-3 0-6 0-5 4-5h3z" class="st1"/><path d="m124 404-2-1h-3c-5 0-5 0-5-4 0-3 1-4 4-4h7c2 0 3 1 3 3 1 3-1 5-4 6zm24 59-2-1h-4c-4 0-4 0-4-4s0-4 4-4h7c2 0 3 1 3 3 0 3-1 6-4 6zm338-205h3c5 0 5 0 4 4 0 2-2 4-4 4-2-2-5-1-7-1-3 0-3-2-3-4s0-4 3-4l4 1zm-60 146h2c5 0 5 0 5 5 0 1-3 4-4 3l-8-1c-4 0-2-2-2-4-1-2 0-3 2-3h5z" class="st0"/><path d="M338 236c2 2-2 4-3 4-3-2-6 0-9-1-2-1 0-3-1-5 0-2 1-3 4-3h5c4 0 4 0 4 4z" class="st1"/><path d="M301 481c2 4-3 5-3 5-3-2-7 0-10-1-2-1 0-4-1-6 0-2 2-2 3-2h8c3 0 4 1 3 4z" class="st0"/><path d="M380 176h1c6 1 5-1 5 6 0 2-2 3-4 2h-6c-2 0-3 0-3-3v-2c0-2 1-3 3-3h4z" class="st1"/><path d="M345 427h2c5 0 5 0 5 5 0 2-2 3-5 3l-6-1c-1 0-2 0-2-2v-2c0-3 1-3 3-3h3zm48-76h1c5 0 5 0 5 5 0 2-2 3-4 2h-5c-4 1-3-2-3-3s-1-5 3-4h3zm-69-165c1 3-1 3-3 4-1 1-1-1-2-1h-5c-2 0-2 0-2-2v-3c0-1 0-2 2-2h6c3 0 5 1 4 4z" class="st0"/><path d="M214 283h2c1 0 3-1 3 1s1 5-2 5l-7-1c-2-1-1-3-1-4 0-2 1-2 2-2h3v1zm204-14h1c2 0 4-1 4 2 0 2 1 4-2 4h-8v-5l2-1h3zm56-104h2c1 0 3-1 3 1s1 5-2 5l-7-1c-2 0-1-2-1-4l2-1h3zM337 416h2c1 0 3-1 3 1s1 5-2 5l-7-1c-2 0-1-3-1-4l2-1h3zm137-169h2l3 1v5h-7c-3 0-4-2-3-5l1-1h4zM123 367h2c1 0 3-1 3 1 0 1 2 4-2 5l-7-1c-2 0-1-3-1-4l2-1h3zm0 15h2c2 0 3 1 3 3s-1 2-3 2h-3c-2 0-4 1-4-2 0-4 2-3 4-3h1zm331-266c1 0 4 0 3 3l-1 2h-6c-2-1-1-2-1-3l1-2h4z" class="st1"/><path d="M373 156c-2 0-5 1-4-3l2-2h3c2 0 3 0 3 3s-2 2-3 2h-1zm-37 25h-3v-4h5c1 0 3-1 3 2s-2 3-4 2h-1zm24-147c1 2-1 3-2 2-2-1-6 2-6-3 0-4 4-1 6-2 1 0 3 0 2 3z" class="st0"/><path d="M234 46c1 2 0 2-2 3-4 0-5-1-5-3 0-4 3-2 5-2s3 0 2 2zm237 108c5 0 5 0 5 3l-2 2h-6l-1-3c0-1 0-2 2-2h2zM254 271l-1-1h1v1zm42-193v-1z" class="st1"/><path d="M271 61zm20 12h-1zm104-5h-1 1zM124 404zM337 38zm32 424h-1 1z" class="st0"/><path d="M391 99h-1 1zm-77 333v1-1zM424 99l-2 2v-2h2z" class="st1"/><path d="M436 399h1-1zM324 65v-1z" class="st0"/><path d="M216 278h-1v-1 1zm168-7h-1zm29-10v1l-1-1h1z" class="st1"/><path d="M457 252zm-12-3z" class="st0"/><path d="m483 227-1 1 1-1zm-12 0h1-1zM336 330h-1 1zm61-106zm-156-28z" class="st1"/><path d="M322 180h-1v-1l1 1zm84 162z" class="st0"/><path d="M366 177h-1v-1l1 1zm0 170v1h-1l1-1zm27-174c1 0 0 0 0 0z" class="st1"/><path d="M281 172zm77-17h-1 1z" class="st0"/><path d="M361 393h-1 1zm89-252v-1l1 1h-1z" class="st1"/><path d="M195 117c4 1 6 3 7 6 2 4 4 4 8 4 7 0 8 1 8 8v25c0 5-2 7-7 7h-55c-5 0-6-1-6-6v-28c0-4 1-6 6-6h37c6 0 6-1 4-6l-2-4zm-68 12c-2-1-4-2-4-4-1-2-2-2-4-2-5 0-5 0-5-5v-13c0-3 1-4 4-4h30c3 0 4 1 4 4v15c0 2-1 3-4 3h-20c-3 0-4 1-2 4l1 2zm52-8-5-5c-1-2-2-2-4-2-6 0-6-1-6-6V91c0-4 1-5 4-5h37c4 0 5 1 5 5v18c0 3-1 5-4 5h-25c-4 0-5 1-3 5l1 2zm-64 46-5-5c-1-2-3-3-5-3-5 0-6 0-6-6v-17c0-3 2-4 5-4h37c4 0 5 1 5 4v19c0 3-1 4-4 4h-25c-4 0-5 1-3 5l1 3zm49 182c-3-1-5-3-6-5-1-3-3-3-5-3-7 0-8 0-8-7v-20c0-4 2-5 6-5h47c4 0 6 1 6 5v22c0 3-2 5-6 5h-31c-5 0-6 1-4 6 1 0 2 1 1 2zm12-88c3 0 4 2 6 5 1 3 3 3 6 3 6 0 7 1 7 6v21c0 5-1 6-6 6h-46c-4 0-5-1-5-5v-23c0-4 2-5 5-5h31c5 0 5-1 3-6l-1-2z" class="st0"/><path d="m43 166-4-4c-1-2-2-2-4-2-4 0-4-1-4-5v-14c0-2 0-3 3-3h30c3 0 4 0 4 3v15c0 3-1 4-3 4H45c-4 0-5 1-3 4l1 2zm67 190-4-4c-1-2-2-2-4-2-5 0-5 0-5-5v-13c0-3 1-4 4-4h33c3 0 4 1 4 4v15c0 2-1 3-4 3h-21c-4 0-5 1-3 4v2zm104-101-5-5c-1-1-2-2-5-2-6 0-6 0-6-6v-16c0-3 1-4 5-4h39c4 0 5 1 5 4v18c0 3-1 4-5 4h-26c-4 0-5 1-3 5l1 2zm21-37c0-3 0-3-3-3h-13c-2 0-3-1-3-3v-10c0-2 1-3 3-3h21c2 0 3 1 3 2v11c0 1 0 3-1 2-4 0-5 2-7 4z" class="st1"/><path d="m204 192-3-2-1-1c-3 0-3 0-3-3v-7c0-2 0-2 2-2h16c2 0 2 0 2 2v8c0 1 0 2-2 2h-11c-1 0-2 0-1 2v1zM150 46c1-2 1-2-1-2h-8l-2-2v-7l2-1h13c1 0 2 0 2 2v6c0 1-1 2-2 1l-3 3h-1z" class="st0"/><path d="m167 78-4-4-4-2c-4 1-5 0-5-4V54c0-3 1-4 4-4h30c3 0 4 1 4 4v15c0 3-1 4-4 4h-19c-4 0-5 0-3 4l1 1zm34-9-2-1-1-1-1-1v-4l1-1h9l1 1v5l-1 1h-6l-1 1h1zm-97 27c0-4 0-4-3-4H88c-2 0-3-1-3-3V79c0-2 1-3 3-3h22l2 2v11l-1 3c-4-1-5 2-7 3zM45 314l-4-4c-1-2-2-2-3-2-5 0-5 0-5-5v-14c0-2 1-3 3-3h31c3 0 4 1 4 3v16c0 2-2 3-4 3H47c-4 0-4 1-2 4v2zm35 84-5-5c-1-2-3-2-5-2-6 0-6 0-6-7v-18c0-3 1-4 4-4h40c4 0 6 1 6 4v20c0 3-2 5-5 5H82c-4 0-5 1-3 5l1 2zm-4-40c1-4 1-4-3-4l-13 1c-2 0-3-1-3-3v-10c0-2 1-3 3-3h22c2 0 3 0 3 2v11c0 1-1 3-2 2-3 0-5 2-7 4zm0-52 4 5 4 2c5 0 5 0 5 5v15c0 2-1 4-4 4H53c-3 0-4-1-4-4v-17c0-2 1-3 4-3h21c4 0 4-1 3-5l-1-2zM29 165c-2 4-2 4 2 4h14c2 0 3 1 3 3v11c0 2-1 3-3 3H22c-2 0-3-1-3-3v-11c0-2 1-3 3-3s3 0 4-2c0-1 1-2 3-2zm58-58c-1 5-1 5 4 5h13c2 0 3 0 3 2v12c0 2-1 3-2 3H81c-2 0-3-1-3-3v-12l2-2c3 0 5-1 6-4l1-1zm-11 32c0-2 0-2-2-2h-6l-1-1v-5l1-1h10l1 1v6l-4 2zm3-37-1-1h-6l-2-2v-4l1-2h11l1 1v5c0 1 0 2-1 1l-3 2zm71-6c1-3 1-3-1-3h-8c-1 0-2 0-2-2v-5c0-2 1-2 2-2h13l1 1v7l-1 1c-2 0-3 1-4 3zm11-13-1-1h-3l-1-1v-2l1-1h5l1 1v2l-1 1-2 1zm-14-8 1 1h4v4h-8v-4h1l1-1h1zm-5-18 1 1h5v5h-8l-1-1v-3l1-1 2-1v-1zm-32 9 1 1h4l1 1v4h-9v-4l1-1 2-1zm-47 49c0-2 0-2-2-2h-5l-2-1v-5l1-1h11l1 1v5l-1 1-3 2zm-20 11c-1 2-1 2 1 2h6l1 1v5l-1 1H40l-1-1v-6l3-1 1-1zm7-5v-1h-3l-1-1v-2l1-1h5v4l-2 1zm32 34c0-3 0-3-2-3h-8c-1 0-2 0-2-2v-6c0-1 0-2 2-2h13l2 2v7l-1 1-4 2zm-55 48c0-3 0-3-2-3h-9c-2 0-3-1-3-2v-7c0-2 1-2 2-2h16l2 1v8l-1 2c-3 0-4 1-5 3z" class="st1"/><path d="m113 272-3-3-2-1c-4 0-4 0-4-4v-10c0-2 1-3 3-3h22c2 0 3 1 3 3v12c0 1-1 2-3 2h-14c-3 0-3 1-2 3v1zm44-8c0-2 0-2-2-2h-7c-2 0-3 0-3-2v-5c0-2 1-2 2-2h13c1 0 2 0 2 2v3c0 3 0 5-3 4l-2 2zm-43 55-4-3-3-1c-4 0-4 0-4-4v-11c0-2 1-3 3-3h27c2 0 3 1 3 3v12c0 2-1 3-3 3h-18c-3 0-3 0-2 3l1 1zm-22-30-2-1-2-1c-2 0-2 0-2-3v-6l1-2h16l2 2v7l-2 2H93c-2 0-2 0-2 2h1zm34-3c0-2 0-2-2-2h-7c-2 0-3 0-3-2v-6l2-2h13c2 0 2 1 2 3v3c0 2 0 4-3 4l-2 2zm-51-12c0-3 0-3-2-3h-7c-2 0-2 0-2-2v-5c0-2 0-2 2-2h12c2 0 2 0 2 2v4c0 2 1 4-2 3-1 0-1 2-3 2zm156-136c1-2 1-2-1-2h-7l-1-2v-5l1-1h11l2 1v5l-1 2c-2-1-2 0-3 1l-1 1zM129 46l-1-2h-5v-4h8l1 1v3h-1l-2 2zM45 262c0-3 0-3-4-3H30c-3 0-4-1-4-4v-9c0-2 1-3 3-3h21c2 0 3 1 3 3v7c0 3 0 6-5 6-1 0-1 3-3 3zm1-24c0-3 0-3-3-3h-8c-2 0-3-1-3-3v-7c0-1 0-2 2-2h16c2 0 2 1 2 3v4c0 3 1 5-3 5l-3 3zm1-29c0-2 0-2-2-2h-6l-2-2v-4c0-2 1-2 2-2h11l1 2v3c0 1 1 3-2 3l-2 2zm-24 17-2-1h-4l-1-2v-3l1-1h8l1 1v3c0 1 0 2-2 2l-1 1zm-9 13-1-2h-1c-2 0-2 0-2-2v-4l1-2h11l2 2v5l-2 1h-7l-1 1v1z" class="st0"/><path d="m13 204 1 2h4l1 1v3l-1 1h-7l-1-1v-4h1l2-1v-1zm19 12-1-1h-5l-1-2v-3l1-1h8l1 1v4h-1l-2 2zm-16 34-1-1h-5l-1-1v-4l1-1h8l1 1v4l-1 1-2 1zm2 3c-1 1-1 1 1 1h4l1 1v3l-1 1h-8v-5l2-1 1-1zm10 17 1 1h3l1 1v3h-7v-4l2-1zm24 13c1-3 1-3-2-3h-9c-2 0-2-1-2-2v-7c0-2 0-3 2-3h15l2 2v8l-1 2c-2-1-4 1-5 3zm31 20c0-2 0-2-2-2h-6c-2 0-2-1-2-2v-5l1-1h12l1 1v6l-1 1c-2-1-2 1-4 2zm18 14 1 1h5l1 1v4l-1 1h-8l-1-1v-4l1-1 2-1z" class="st1"/><path d="M23 295c0-2 0-2-3-2h-9c-2 0-3-1-3-3v-7c0-2 1-3 3-3h16c2 0 3 1 3 3v5c0 2 0 5-4 5-1-1-1 2-3 2zm23 59c0-3 0-3-3-3h-9c-2 0-3-1-3-3v-7a443 443 0 0 0 19-2c2 0 3 0 3 2v5c0 3 0 5-4 5l-3 3zm-15-18c0-2 0-2-2-2h-6c-2 0-2-1-2-2v-5l1-2h12c1 0 2 0 2 2v3c0 2 0 4-3 4-1-1-1 1-2 1zm20 35c0-2 0-2-3-2h-6c-1 0-2 0-2-2v-5l2-2h11c2 0 2 1 2 2v4c0 2 0 3-2 3l-2 2zm41-205c0-2 0-2-2-2h-6l-2-1v-5l2-2h10c2 0 2 1 2 2v3c0 2 0 4-2 3l-2 2zm9 101-6-3c-5-4-9-9-12-14-1-2-2-3-4-3H65c-6 0-9-3-9-9v-56c0-6 4-9 10-9h113c8 0 11 3 11 10v54c0 6-4 10-11 10H98c-3 0-4 2-4 5 1 4 3 9 6 13 1 0 2 1 1 2z" class="st0"/></svg>