<?xml version="1.0" standalone="no"?>
<!DOCTYPE svg PUBLIC "-//W3C//DTD SVG 20010904//EN"
 "http://www.w3.org/TR/2001/REC-SVG-20010904/DTD/svg10.dtd">
<svg version="1.0" xmlns="http://www.w3.org/2000/svg"
 width="400.000000pt" height="400.000000pt" viewBox="0 0 400.000000 400.000000"
 preserveAspectRatio="xMidYMid meet">
<metadata>
Created by potrace 1.11, written by Peter Selinger 2001-2013
</metadata>
<g transform="translate(0.000000,400.000000) scale(0.100000,-0.100000)"
fill="#000000" stroke="none">
<path d="M2077 3964 c-1 -1 -31 -5 -67 -8 -266 -26 -564 -131 -785 -277 -92
-61 -93 -62 -196 -151 -272 -237 -471 -572 -549 -928 -31 -137 -35 -185 -34
-390 0 -162 4 -214 22 -305 60 -292 184 -562 354 -766 l38 -47 -34 -6 c-33 -6
-151 -122 -639 -630 -140 -145 -150 -198 -57 -297 112 -119 123 -129 156 -135
43 -8 85 9 127 51 46 47 513 528 587 605 70 74 90 107 93 154 l2 32 70 -51
c166 -121 378 -220 592 -273 160 -40 219 -47 423 -47 190 0 239 5 412 40 71
14 254 82 355 131 339 166 614 436 787 776 68 134 128 302 152 423 78 400 29
785 -143 1130 -271 541 -791 899 -1394 961 -56 6 -268 12 -272 8z m378 -228
c116 -20 303 -79 353 -112 12 -8 22 -12 22 -8 0 9 127 -64 225 -130 83 -56
268 -230 338 -316 60 -74 197 -300 182 -300 -3 0 1 -10 9 -22 16 -25 78 -188
71 -188 -2 0 3 -16 11 -35 8 -19 12 -35 9 -35 -2 0 0 -11 5 -24 5 -13 11 -44
14 -68 3 -23 8 -54 11 -68 11 -48 14 -309 4 -377 -6 -37 -12 -83 -15 -100 -2
-18 -11 -59 -20 -90 -8 -32 -17 -66 -19 -76 -7 -33 -47 -142 -65 -177 -10 -19
-32 -64 -51 -100 -35 -70 -93 -160 -149 -231 -40 -51 -249 -259 -260 -259 -4
0 -23 -13 -41 -30 -19 -16 -45 -35 -59 -42 -14 -7 -27 -16 -30 -20 -3 -4 -53
-32 -112 -63 -115 -60 -313 -130 -391 -139 -27 -3 -52 -8 -56 -11 -43 -26
-491 -25 -534 2 -6 3 -27 8 -48 9 -21 2 -93 22 -160 44 -525 172 -924 625
-1029 1165 -26 136 -28 423 -4 560 37 212 144 461 275 635 250 335 593 544
1009 614 39 6 460 0 505 -8z"/>
<path d="M1358 3092 c-65 -2 -90 -7 -100 -19 -9 -12 -13 -56 -13 -164 -1 -148
-8 -179 -40 -179 -36 0 -37 -17 -37 -661 0 -515 3 -634 14 -645 10 -10 90 -14
368 -17 195 -2 369 -7 385 -11 59 -14 135 -58 172 -100 56 -62 63 -62 120 -1
50 53 101 83 177 103 23 7 174 11 382 12 189 0 350 3 358 6 8 3 17 18 20 32 2
15 4 306 3 647 l-2 620 -30 14 c-16 8 -33 19 -36 24 -4 5 -7 77 -8 160 -1 96
-5 155 -12 164 -10 11 -76 13 -363 12 -410 -1 -431 -5 -503 -83 -23 -25 -45
-46 -50 -46 -5 0 -15 10 -23 22 -33 51 -80 86 -127 97 -46 10 -478 19 -655 13z
m71 -259 c0 -82 0 -166 0 -188 l1 -40 37 63 c21 34 40 62 43 62 3 0 21 -28 40
-62 l35 -63 3 188 2 189 168 -4 c185 -4 210 -11 282 -80 77 -72 74 -54 77
-610 1 -316 6 -504 12 -516 14 -25 46 -33 68 -17 17 13 18 45 20 527 1 556 2
560 58 633 47 63 60 65 403 65 210 0 313 -3 317 -11 4 -6 7 -307 8 -670 0
-598 -2 -662 -16 -677 -15 -14 -54 -16 -314 -18 -164 -1 -309 -4 -322 -7 -49
-13 -113 -51 -139 -83 -15 -19 -33 -34 -39 -34 -7 0 -32 20 -57 44 -73 74
-107 80 -457 81 -162 1 -301 5 -307 9 -9 5 -12 174 -12 680 0 370 3 676 7 679
3 4 23 7 44 7 l38 0 0 -147z"/>
</g>
</svg>
