<svg xmlns="http://www.w3.org/2000/svg" baseProfile="tiny" version="1.2" viewBox="0 0 80 80">
  
  <g fill="#fff"><path d="M60.3 70.1a3.4 3.4 0 0 1-3.4 3.4H23.2a3.4 3.4 0 0 1-3.4-3.4V10a3.4 3.4 0 0 1 3.4-3.4h33.7a3.4 3.4 0 0 1 3.4 3.4v60.1Zm-4.4-58.3a.4.4 0 0 0-.3-.3H24.4a.4.4 0 0 0-.3.3V63a.4.4 0 0 0 .3.4h31.2a.4.4 0 0 0 .3-.4V12ZM45.2 68.2a1.5 1.5 0 0 0-1.5-1.5h-7a1.5 1.5 0 0 0-1.5 1.5v.8a1.5 1.5 0 0 0 1.5 1.5h7a1.5 1.5 0 0 0 1.5-1.5v-.8Z"/><path d="M37 31c-.4 1.3.4 2.8 1.5 3.3q4.6 2.1 6.2 3.3c4.3 2.9 3.7 9-.3 11.7q-4 2.9-11 .7a2.8 2.8 0 0 1-2-2.6v-1.2q0-2 1.6-.9c2.1 1.4 8 3 9.2-.5q1-2.4-2-3.8c-3.8-2-7.5-3.2-8.2-7.2-1.6-8.1 7.9-10.2 13.4-7.3q.8.4.8 1.3v2.3q0 1-.9.5-7-3.2-8.3.5Z"/></g>
  <g fill="#005727"><path d="M56 63a.4.4 0 0 1-.4.3H24.4a.4.4 0 0 1-.3-.4V12a.4.4 0 0 1 .3-.4h31.2a.4.4 0 0 1 .3.3V63ZM37 31q1.3-3.6 8.3-.4.9.4.9-.5v-2.3q0-1-.8-1.4c-5.5-2.8-15-.8-13.4 7.4.7 4 4.4 5.3 8.3 7.2q2.8 1.4 2 3.8c-1.4 3.5-7.2 2-9.3.5q-1.6-1.1-1.6 1v1a2.8 2.8 0 0 0 2 2.7q7 2.2 11-.7c4-2.8 4.6-8.8.3-11.7q-1.6-1.2-6.2-3.3c-1.1-.5-1.9-2-1.5-3.2Z"/><rect width="10" height="3.8" x="35.2" y="66.7" rx="1.5"/></g>
</svg>