<svg xmlns="http://www.w3.org/2000/svg">

<symbol id="apple" viewBox="0 0 24 24">
<path fill="currentColor" d="M18.71 19.5C17.88 20.74 17 21.95 15.66 21.97C14.32 22 13.89 21.18 12.37 21.18C10.84 21.18 10.37 21.95 9.09997 22C7.78997 22.05 6.79997 20.68 5.95997 19.47C4.24997 17 2.93997 12.45 4.69997 9.39C5.56997 7.87 7.12997 6.91 8.81997 6.88C10.1 6.86 11.32 7.75 12.11 7.75C12.89 7.75 14.37 6.68 15.92 6.84C16.57 6.87 18.39 7.1 19.56 8.82C19.47 8.88 17.39 10.1 17.41 12.63C17.44 15.65 20.06 16.66 20.09 16.67C20.06 16.74 19.67 18.11 18.71 19.5ZM13 3.5C13.73 2.67 14.94 2.04 15.94 2C16.07 3.17 15.6 4.35 14.9 5.19C14.21 6.04 13.07 6.7 11.95 6.61C11.8 5.46 12.36 4.26 13 3.5Z"/>
</symbol>

<symbol id="android" viewBox="0 0 553 553">
<path fill="currentColor" d="M77 179c-10 0-18 3-24 10-7 7-10 15-10 24v143c0 9 3 18 10 24 6 7 14 10 24 10 9 0 17-3 24-10 6-6 10-15 10-24V213c0-9-4-17-10-24-7-7-15-10-24-10zM352 51l24-44c1-3 1-5-2-6-3-2-5-1-7 2l-24 44a163 163 0 0 0-133 0L186 3c-2-3-4-4-7-2-3 1-3 3-2 6l24 44c-24 12-43 29-57 51s-21 46-21 71h307c0-25-7-49-21-71s-33-39-57-51zm-136 63c-3 3-6 4-10 4-3 0-6-1-9-4-2-2-3-5-3-9s1-7 3-9c3-3 6-4 9-4s7 1 10 4c2 2 3 5 3 9s-1 7-3 9zm140 0a12 12 0 0 1-18 0c-3-2-4-5-4-9s1-7 4-9c2-3 5-4 9-4 3 0 6 1 9 4 2 2 3 5 3 9s-1 7-3 9zM124 407c0 10 4 19 11 26s15 10 26 10h24v76c0 9 4 17 10 24s15 10 24 10c10 0 18-3 25-10s10-15 10-24v-76h45v76c0 9 4 17 10 24s15 10 25 10c9 0 17-3 24-10s10-15 10-24v-76h25a35 35 0 0 0 36-37V186H124v222zm352-228c-9 0-17 3-24 10-6 6-10 15-10 24v143a34 34 0 0 0 68 0V213c1-9-3-18-9-24-7-7-15-10-25-10z"/>
</symbol>

</svg>